<svg width="159" height="40" viewBox="0 0 159 40" fill="none" xmlns="http://www.w3.org/2000/svg">
<rect x="0.5" y="0.5" width="158" height="39" rx="11.5" stroke="#1A4775"/>
<path d="M67.5627 20.002C68.0854 20.0953 68.5287 20.3707 68.8927 20.828C69.2567 21.2853 69.4387 21.8033 69.4387 22.382C69.4387 22.8767 69.308 23.3247 69.0467 23.726C68.7947 24.118 68.426 24.4307 67.9407 24.664C67.4554 24.888 66.8907 25 66.2467 25H62.3547V15.27H66.0647C66.7274 15.27 67.2967 15.382 67.7727 15.606C68.2487 15.83 68.608 16.1333 68.8507 16.516C69.0934 16.8893 69.2147 17.3093 69.2147 17.776C69.2147 18.336 69.0654 18.8027 68.7667 19.176C68.468 19.5493 68.0667 19.8247 67.5627 20.002ZM63.9507 19.358H65.9247C66.4474 19.358 66.8534 19.2413 67.1427 19.008C67.4414 18.7653 67.5907 18.42 67.5907 17.972C67.5907 17.5333 67.4414 17.1927 67.1427 16.95C66.8534 16.698 66.4474 16.572 65.9247 16.572H63.9507V19.358ZM66.1067 23.698C66.648 23.698 67.0727 23.5673 67.3807 23.306C67.6887 23.0447 67.8427 22.6807 67.8427 22.214C67.8427 21.738 67.6794 21.36 67.3527 21.08C67.026 20.8 66.592 20.66 66.0507 20.66H63.9507V23.698H66.1067ZM70.641 21.108C70.641 20.3333 70.7997 19.6473 71.117 19.05C71.4437 18.4527 71.8824 17.9907 72.433 17.664C72.993 17.328 73.609 17.16 74.281 17.16C74.8877 17.16 75.415 17.2813 75.863 17.524C76.3204 17.7573 76.6844 18.0513 76.955 18.406V17.286H78.565V25H76.955V23.852C76.6844 24.216 76.3157 24.5193 75.849 24.762C75.3824 25.0047 74.8504 25.126 74.253 25.126C73.5904 25.126 72.9837 24.958 72.433 24.622C71.8824 24.2767 71.4437 23.8007 71.117 23.194C70.7997 22.578 70.641 21.8827 70.641 21.108ZM76.955 21.136C76.955 20.604 76.843 20.142 76.619 19.75C76.4044 19.358 76.1197 19.0593 75.765 18.854C75.4104 18.6487 75.0277 18.546 74.617 18.546C74.2064 18.546 73.8237 18.6487 73.469 18.854C73.1144 19.05 72.825 19.344 72.601 19.736C72.3864 20.1187 72.279 20.576 72.279 21.108C72.279 21.64 72.3864 22.1067 72.601 22.508C72.825 22.9093 73.1144 23.2173 73.469 23.432C73.833 23.6373 74.2157 23.74 74.617 23.74C75.0277 23.74 75.4104 23.6373 75.765 23.432C76.1197 23.2267 76.4044 22.928 76.619 22.536C76.843 22.1347 76.955 21.668 76.955 21.136ZM82.5233 18.588V22.858C82.5233 23.1473 82.5887 23.3573 82.7193 23.488C82.8593 23.6093 83.0927 23.67 83.4193 23.67H84.3993V25H83.1393C82.4207 25 81.87 24.832 81.4873 24.496C81.1047 24.16 80.9133 23.614 80.9133 22.858V18.588H80.0033V17.286H80.9133V15.368H82.5233V17.286H84.3993V18.588H82.5233ZM85.3383 21.108C85.3383 20.3333 85.497 19.6473 85.8143 19.05C86.141 18.4527 86.5796 17.9907 87.1303 17.664C87.6903 17.328 88.3063 17.16 88.9783 17.16C89.585 17.16 90.1123 17.2813 90.5603 17.524C91.0176 17.7573 91.3816 18.0513 91.6523 18.406V17.286H93.2623V25H91.6523V23.852C91.3816 24.216 91.013 24.5193 90.5463 24.762C90.0796 25.0047 89.5476 25.126 88.9503 25.126C88.2876 25.126 87.681 24.958 87.1303 24.622C86.5796 24.2767 86.141 23.8007 85.8143 23.194C85.497 22.578 85.3383 21.8827 85.3383 21.108ZM91.6523 21.136C91.6523 20.604 91.5403 20.142 91.3163 19.75C91.1016 19.358 90.817 19.0593 90.4623 18.854C90.1076 18.6487 89.725 18.546 89.3143 18.546C88.9036 18.546 88.521 18.6487 88.1663 18.854C87.8116 19.05 87.5223 19.344 87.2983 19.736C87.0836 20.1187 86.9763 20.576 86.9763 21.108C86.9763 21.64 87.0836 22.1067 87.2983 22.508C87.5223 22.9093 87.8116 23.2173 88.1663 23.432C88.5303 23.6373 88.913 23.74 89.3143 23.74C89.725 23.74 90.1076 23.6373 90.4623 23.432C90.817 23.2267 91.1016 22.928 91.3163 22.536C91.5403 22.1347 91.6523 21.668 91.6523 21.136ZM96.9546 14.64V25H95.3586V14.64H96.9546Z" fill="#1A4775"/>
</svg>
