<svg width="159" height="40" viewBox="0 0 159 40" fill="none" xmlns="http://www.w3.org/2000/svg">
<rect width="159" height="40" rx="12" fill="#1A4775"/>
<path d="M56.5001 25.098C55.8468 25.098 55.2588 24.986 54.7361 24.762C54.2135 24.5287 53.8028 24.202 53.5041 23.782C53.2055 23.362 53.0561 22.872 53.0561 22.312H54.7641C54.8015 22.732 54.9648 23.0773 55.2541 23.348C55.5528 23.6187 55.9681 23.754 56.5001 23.754C57.0508 23.754 57.4801 23.6233 57.7881 23.362C58.0961 23.0913 58.2501 22.746 58.2501 22.326C58.2501 21.9993 58.1521 21.7333 57.9561 21.528C57.7695 21.3227 57.5315 21.164 57.2421 21.052C56.9621 20.94 56.5701 20.8187 56.0661 20.688C55.4315 20.52 54.9135 20.352 54.5121 20.184C54.1201 20.0067 53.7841 19.736 53.5041 19.372C53.2241 19.008 53.0841 18.5227 53.0841 17.916C53.0841 17.356 53.2241 16.866 53.5041 16.446C53.7841 16.026 54.1761 15.704 54.6801 15.48C55.1841 15.256 55.7675 15.144 56.4301 15.144C57.3728 15.144 58.1428 15.382 58.7401 15.858C59.3468 16.3247 59.6828 16.9687 59.7481 17.79H57.9841C57.9561 17.4353 57.7881 17.132 57.4801 16.88C57.1721 16.628 56.7661 16.502 56.2621 16.502C55.8048 16.502 55.4315 16.6187 55.1421 16.852C54.8528 17.0853 54.7081 17.4213 54.7081 17.86C54.7081 18.1587 54.7968 18.406 54.9741 18.602C55.1608 18.7887 55.3941 18.938 55.6741 19.05C55.9541 19.162 56.3368 19.2833 56.8221 19.414C57.4661 19.5913 57.9888 19.7687 58.3901 19.946C58.8008 20.1233 59.1461 20.3987 59.4261 20.772C59.7155 21.136 59.8601 21.626 59.8601 22.242C59.8601 22.7367 59.7248 23.2033 59.4541 23.642C59.1928 24.0807 58.8055 24.4353 58.2921 24.706C57.7881 24.9673 57.1908 25.098 56.5001 25.098ZM62.5554 16.264C62.266 16.264 62.0234 16.166 61.8274 15.97C61.6314 15.774 61.5334 15.5313 61.5334 15.242C61.5334 14.9527 61.6314 14.71 61.8274 14.514C62.0234 14.318 62.266 14.22 62.5554 14.22C62.8354 14.22 63.0734 14.318 63.2694 14.514C63.4654 14.71 63.5634 14.9527 63.5634 15.242C63.5634 15.5313 63.4654 15.774 63.2694 15.97C63.0734 16.166 62.8354 16.264 62.5554 16.264ZM63.3394 17.286V25H61.7434V17.286H63.3394ZM74.7728 17.16C75.3794 17.16 75.9208 17.286 76.3968 17.538C76.8821 17.79 77.2601 18.1633 77.5308 18.658C77.8108 19.1527 77.9508 19.75 77.9508 20.45V25H76.3688V20.688C76.3688 19.9973 76.1961 19.47 75.8508 19.106C75.5054 18.7327 75.0341 18.546 74.4368 18.546C73.8394 18.546 73.3634 18.7327 73.0088 19.106C72.6634 19.47 72.4908 19.9973 72.4908 20.688V25H70.9088V20.688C70.9088 19.9973 70.7361 19.47 70.3908 19.106C70.0454 18.7327 69.5741 18.546 68.9768 18.546C68.3794 18.546 67.9034 18.7327 67.5488 19.106C67.2034 19.47 67.0308 19.9973 67.0308 20.688V25H65.4348V17.286H67.0308V18.168C67.2921 17.8507 67.6234 17.6033 68.0248 17.426C68.4261 17.2487 68.8554 17.16 69.3128 17.16C69.9288 17.16 70.4794 17.2907 70.9648 17.552C71.4501 17.8133 71.8234 18.1913 72.0848 18.686C72.3181 18.2193 72.6821 17.8507 73.1768 17.58C73.6714 17.3 74.2034 17.16 74.7728 17.16ZM81.5776 18.42C81.8483 18.0653 82.217 17.7667 82.6836 17.524C83.1503 17.2813 83.6776 17.16 84.2656 17.16C84.9376 17.16 85.549 17.328 86.0996 17.664C86.6596 17.9907 87.0983 18.4527 87.4156 19.05C87.733 19.6473 87.8916 20.3333 87.8916 21.108C87.8916 21.8827 87.733 22.578 87.4156 23.194C87.0983 23.8007 86.6596 24.2767 86.0996 24.622C85.549 24.958 84.9376 25.126 84.2656 25.126C83.6776 25.126 83.155 25.0093 82.6976 24.776C82.2403 24.5333 81.867 24.2347 81.5776 23.88V28.668H79.9816V17.286H81.5776V18.42ZM86.2676 21.108C86.2676 20.576 86.1556 20.1187 85.9316 19.736C85.717 19.344 85.4276 19.05 85.0636 18.854C84.709 18.6487 84.3263 18.546 83.9156 18.546C83.5143 18.546 83.1316 18.6487 82.7676 18.854C82.413 19.0593 82.1236 19.358 81.8996 19.75C81.685 20.142 81.5776 20.604 81.5776 21.136C81.5776 21.668 81.685 22.1347 81.8996 22.536C82.1236 22.928 82.413 23.2267 82.7676 23.432C83.1316 23.6373 83.5143 23.74 83.9156 23.74C84.3263 23.74 84.709 23.6373 85.0636 23.432C85.4276 23.2173 85.717 22.9093 85.9316 22.508C86.1556 22.1067 86.2676 21.64 86.2676 21.108ZM88.9379 21.108C88.9379 20.3333 89.0966 19.6473 89.4139 19.05C89.7406 18.4527 90.1793 17.9907 90.7299 17.664C91.2899 17.328 91.9059 17.16 92.5779 17.16C93.1846 17.16 93.7119 17.2813 94.1599 17.524C94.6173 17.7573 94.9813 18.0513 95.2519 18.406V17.286H96.8619V25H95.2519V23.852C94.9813 24.216 94.6126 24.5193 94.1459 24.762C93.6793 25.0047 93.1473 25.126 92.5499 25.126C91.8873 25.126 91.2806 24.958 90.7299 24.622C90.1793 24.2767 89.7406 23.8007 89.4139 23.194C89.0966 22.578 88.9379 21.8827 88.9379 21.108ZM95.2519 21.136C95.2519 20.604 95.1399 20.142 94.9159 19.75C94.7013 19.358 94.4166 19.0593 94.0619 18.854C93.7073 18.6487 93.3246 18.546 92.9139 18.546C92.5033 18.546 92.1206 18.6487 91.7659 18.854C91.4113 19.05 91.1219 19.344 90.8979 19.736C90.6833 20.1187 90.5759 20.576 90.5759 21.108C90.5759 21.64 90.6833 22.1067 90.8979 22.508C91.1219 22.9093 91.4113 23.2173 91.7659 23.432C92.1299 23.6373 92.5126 23.74 92.9139 23.74C93.3246 23.74 93.7073 23.6373 94.0619 23.432C94.4166 23.2267 94.7013 22.928 94.9159 22.536C95.1399 22.1347 95.2519 21.668 95.2519 21.136ZM102.85 17.16C103.457 17.16 103.998 17.286 104.474 17.538C104.96 17.79 105.338 18.1633 105.608 18.658C105.879 19.1527 106.014 19.75 106.014 20.45V25H104.432V20.688C104.432 19.9973 104.26 19.47 103.914 19.106C103.569 18.7327 103.098 18.546 102.5 18.546C101.903 18.546 101.427 18.7327 101.072 19.106C100.727 19.47 100.554 19.9973 100.554 20.688V25H98.9582V17.286H100.554V18.168C100.816 17.8507 101.147 17.6033 101.548 17.426C101.959 17.2487 102.393 17.16 102.85 17.16Z" fill="white"/>
</svg>
